<svg width="84" height="28" viewBox="0 0 84 28" fill="none" xmlns="http://www.w3.org/2000/svg">
<g style="mix-blend-mode:multiply">
<rect width="84" height="28" rx="14" fill="#FEF1EC"/>
<path d="M13.2045 19V8.81818H16.9332C17.6558 8.81818 18.254 8.9375 18.728 9.17614C19.2019 9.41146 19.5566 9.7313 19.7919 10.1357C20.0272 10.5367 20.1449 10.9891 20.1449 11.4929C20.1449 11.9171 20.067 12.2751 19.9112 12.5668C19.7554 12.8551 19.5466 13.0871 19.2848 13.2628C19.0263 13.4351 18.7412 13.5611 18.4297 13.6406V13.7401C18.7678 13.7566 19.0975 13.866 19.419 14.0682C19.7438 14.267 20.0123 14.5504 20.2244 14.9183C20.4366 15.2862 20.5426 15.7337 20.5426 16.2607C20.5426 16.781 20.42 17.2483 20.1747 17.6626C19.9328 18.0736 19.5582 18.4001 19.0511 18.642C18.544 18.8807 17.8961 19 17.1072 19H13.2045ZM14.7408 17.6825H16.9581C17.6939 17.6825 18.2209 17.54 18.5391 17.255C18.8572 16.9699 19.0163 16.6136 19.0163 16.1861C19.0163 15.8646 18.9351 15.5696 18.7727 15.3011C18.6103 15.0327 18.3783 14.8189 18.0767 14.6598C17.7784 14.5007 17.4238 14.4212 17.0128 14.4212H14.7408V17.6825ZM14.7408 13.223H16.799C17.1437 13.223 17.4536 13.1567 17.7287 13.0241C18.0071 12.8916 18.2275 12.706 18.3899 12.4673C18.5556 12.2254 18.6385 11.9403 18.6385 11.6122C18.6385 11.1913 18.491 10.8383 18.196 10.5533C17.901 10.2682 17.4486 10.1257 16.8388 10.1257H14.7408V13.223ZM25.5366 19.1541C24.7842 19.1541 24.1362 18.9934 23.5927 18.6719C23.0524 18.3471 22.6348 17.8913 22.3398 17.3047C22.0482 16.7147 21.9023 16.0237 21.9023 15.2315C21.9023 14.4493 22.0482 13.7599 22.3398 13.1634C22.6348 12.5668 23.0458 12.1011 23.5728 11.7663C24.1031 11.4316 24.7229 11.2642 25.4322 11.2642C25.863 11.2642 26.2807 11.3355 26.685 11.478C27.0894 11.6205 27.4523 11.8442 27.7738 12.1491C28.0953 12.4541 28.3488 12.8501 28.5344 13.3374C28.7201 13.8213 28.8129 14.4096 28.8129 15.1023V15.6293H22.7425V14.5156H27.3562C27.3562 14.1245 27.2766 13.7782 27.1175 13.4766C26.9585 13.1716 26.7347 12.9313 26.4464 12.7557C26.1613 12.58 25.8266 12.4922 25.4421 12.4922C25.0245 12.4922 24.6599 12.5949 24.3484 12.8004C24.0401 13.0026 23.8015 13.2678 23.6325 13.5959C23.4667 13.9207 23.3839 14.2737 23.3839 14.6548V15.5249C23.3839 16.0353 23.4734 16.4695 23.6523 16.8274C23.8346 17.1854 24.0882 17.4588 24.413 17.6477C24.7378 17.8333 25.1173 17.9261 25.5515 17.9261C25.8332 17.9261 26.0901 17.8864 26.3221 17.8068C26.5541 17.724 26.7546 17.6013 26.9237 17.4389C27.0927 17.2765 27.2219 17.076 27.3114 16.8374L28.7184 17.0909C28.6057 17.5052 28.4035 17.8681 28.1119 18.1797C27.8235 18.4879 27.4606 18.7282 27.0231 18.9006C26.5889 19.0696 26.0934 19.1541 25.5366 19.1541ZM33.6639 22.0227C33.0574 22.0227 32.5353 21.9432 32.0978 21.7841C31.6636 21.625 31.309 21.4145 31.0339 21.1527C30.7588 20.8909 30.5533 20.6042 30.4174 20.2926L31.6951 19.7656C31.7846 19.9115 31.9039 20.0656 32.0531 20.228C32.2056 20.3937 32.411 20.5346 32.6696 20.6506C32.9314 20.7666 33.2678 20.8246 33.6788 20.8246C34.2422 20.8246 34.7079 20.687 35.0758 20.4119C35.4437 20.1402 35.6277 19.706 35.6277 19.1094V17.608H35.5332C35.4437 17.7704 35.3145 17.951 35.1454 18.1499C34.9797 18.3487 34.751 18.5211 34.4593 18.6669C34.1677 18.8127 33.7882 18.8857 33.3208 18.8857C32.7176 18.8857 32.1741 18.7448 31.6902 18.4631C31.2096 18.178 30.8284 17.7588 30.5467 17.2053C30.2683 16.6484 30.1291 15.964 30.1291 15.152C30.1291 14.34 30.2666 13.6439 30.5417 13.0639C30.8201 12.4839 31.2013 12.0398 31.6852 11.7315C32.1691 11.42 32.7176 11.2642 33.3308 11.2642C33.8047 11.2642 34.1876 11.3438 34.4792 11.5028C34.7709 11.6586 34.9979 11.8409 35.1603 12.0497C35.3261 12.2585 35.4537 12.4425 35.5431 12.6016H35.6525V11.3636H37.1092V19.169C37.1092 19.8253 36.9567 20.3639 36.6518 20.7848C36.3469 21.2057 35.9342 21.5173 35.4139 21.7195C34.8968 21.9216 34.3135 22.0227 33.6639 22.0227ZM33.649 17.6527C34.0765 17.6527 34.4378 17.5533 34.7328 17.3544C35.0311 17.1522 35.2565 16.8639 35.4089 16.4893C35.5647 16.1115 35.6426 15.6591 35.6426 15.1321C35.6426 14.6184 35.5663 14.166 35.4139 13.7749C35.2614 13.3838 35.0377 13.0788 34.7427 12.8601C34.4477 12.638 34.0832 12.527 33.649 12.527C33.2015 12.527 32.8287 12.643 32.5304 12.875C32.2321 13.1037 32.0067 13.4152 31.8542 13.8097C31.7051 14.2041 31.6305 14.6449 31.6305 15.1321C31.6305 15.6326 31.7067 16.0717 31.8592 16.4496C32.0117 16.8274 32.237 17.1224 32.5353 17.3345C32.8369 17.5466 33.2082 17.6527 33.649 17.6527ZM39.1028 19V11.3636H40.5893V19H39.1028ZM39.8535 10.1854C39.595 10.1854 39.3729 10.0992 39.1873 9.92685C39.005 9.75118 38.9139 9.54238 38.9139 9.30043C38.9139 9.05516 39.005 8.84635 39.1873 8.67401C39.3729 8.49834 39.595 8.41051 39.8535 8.41051C40.112 8.41051 40.3324 8.49834 40.5147 8.67401C40.7003 8.84635 40.7931 9.05516 40.7931 9.30043C40.7931 9.54238 40.7003 9.75118 40.5147 9.92685C40.3324 10.0992 40.112 10.1854 39.8535 10.1854ZM44.0756 14.4659V19H42.5891V11.3636H44.016V12.6065H44.1104C44.2861 12.2022 44.5612 11.8774 44.9357 11.6321C45.3136 11.3868 45.7892 11.2642 46.3626 11.2642C46.8829 11.2642 47.3387 11.3736 47.7298 11.5923C48.1209 11.8078 48.4241 12.1293 48.6396 12.5568C48.855 12.9844 48.9627 13.513 48.9627 14.1428V19H47.4762V14.3217C47.4762 13.7682 47.332 13.3357 47.0437 13.0241C46.7553 12.7093 46.3593 12.5518 45.8555 12.5518C45.5108 12.5518 45.2042 12.6264 44.9357 12.7756C44.6706 12.9247 44.4601 13.1435 44.3043 13.4318C44.1519 13.7169 44.0756 14.0616 44.0756 14.4659ZM52.4428 14.4659V19H50.9563V11.3636H52.3832V12.6065H52.4776C52.6533 12.2022 52.9284 11.8774 53.3029 11.6321C53.6808 11.3868 54.1564 11.2642 54.7298 11.2642C55.2501 11.2642 55.7058 11.3736 56.0969 11.5923C56.488 11.8078 56.7913 12.1293 57.0067 12.5568C57.2222 12.9844 57.3299 13.513 57.3299 14.1428V19H55.8434V14.3217C55.8434 13.7682 55.6992 13.3357 55.4109 13.0241C55.1225 12.7093 54.7264 12.5518 54.2227 12.5518C53.878 12.5518 53.5714 12.6264 53.3029 12.7756C53.0378 12.9247 52.8273 13.1435 52.6715 13.4318C52.5191 13.7169 52.4428 14.0616 52.4428 14.4659ZM62.6147 19.1541C61.8623 19.1541 61.2144 18.9934 60.6708 18.6719C60.1306 18.3471 59.7129 17.8913 59.418 17.3047C59.1263 16.7147 58.9805 16.0237 58.9805 15.2315C58.9805 14.4493 59.1263 13.7599 59.418 13.1634C59.7129 12.5668 60.1239 12.1011 60.6509 11.7663C61.1812 11.4316 61.801 11.2642 62.5103 11.2642C62.9412 11.2642 63.3588 11.3355 63.7631 11.478C64.1675 11.6205 64.5304 11.8442 64.8519 12.1491C65.1734 12.4541 65.427 12.8501 65.6126 13.3374C65.7982 13.8213 65.891 14.4096 65.891 15.1023V15.6293H59.8207V14.5156H64.4343C64.4343 14.1245 64.3548 13.7782 64.1957 13.4766C64.0366 13.1716 63.8129 12.9313 63.5245 12.7557C63.2395 12.58 62.9047 12.4922 62.5202 12.4922C62.1026 12.4922 61.738 12.5949 61.4265 12.8004C61.1183 13.0026 60.8796 13.2678 60.7106 13.5959C60.5449 13.9207 60.462 14.2737 60.462 14.6548V15.5249C60.462 16.0353 60.5515 16.4695 60.7305 16.8274C60.9128 17.1854 61.1663 17.4588 61.4911 17.6477C61.8159 17.8333 62.1954 17.9261 62.6296 17.9261C62.9113 17.9261 63.1682 17.8864 63.4002 17.8068C63.6322 17.724 63.8327 17.6013 64.0018 17.4389C64.1708 17.2765 64.3001 17.076 64.3896 16.8374L65.7965 17.0909C65.6838 17.5052 65.4817 17.8681 65.19 18.1797C64.9016 18.4879 64.5387 18.7282 64.1012 18.9006C63.667 19.0696 63.1715 19.1541 62.6147 19.1541ZM67.5403 19V11.3636H68.9771V12.5767H69.0566C69.1958 12.1657 69.4411 11.8426 69.7924 11.6072C70.1471 11.3686 70.5481 11.2493 70.9956 11.2493C71.0884 11.2493 71.1977 11.2526 71.3237 11.2592C71.4529 11.2659 71.554 11.2741 71.627 11.2841V12.706C71.5673 12.6894 71.4612 12.6712 71.3088 12.6513C71.1563 12.6281 71.0038 12.6165 70.8514 12.6165C70.5001 12.6165 70.1868 12.6911 69.9118 12.8402C69.64 12.986 69.4245 13.1899 69.2654 13.4517C69.1064 13.7102 69.0268 14.0052 69.0268 14.3366V19H67.5403Z" fill="#DD673C"/>
</g>
</svg>
