<svg width="32" height="32" viewBox="0 0 32 32" fill="none" xmlns="http://www.w3.org/2000/svg">
<rect width="32" height="32" rx="16" fill="white"/>
<path d="M18 12.7134C18 12.2667 17.78 11.8534 17.4067 11.6067L14.74 9.82668C14.2933 9.52668 13.7067 9.52668 13.26 9.82668L10.5933 11.6067C10.2267 11.8534 10 12.2667 10 12.7134V16.5C10 16.6867 10.1467 16.8334 10.3333 16.8334H17.6667C17.8533 16.8334 18 16.6867 18 16.5V12.7134ZM14 15.1667C13.36 15.1667 12.8333 14.64 12.8333 14C12.8333 13.36 13.36 12.8334 14 12.8334C14.64 12.8334 15.1667 13.36 15.1667 14C15.1667 14.64 14.64 15.1667 14 15.1667Z" fill="#DD673C"/>
<path d="M22.6666 22.1666H21.8199V20.1666C22.4533 19.96 22.9133 19.3666 22.9133 18.6666V17.3333C22.9133 16.46 22.1999 15.7466 21.3266 15.7466C20.4533 15.7466 19.7399 16.46 19.7399 17.3333V18.6666C19.7399 19.36 20.1933 19.9466 20.8133 20.16V22.1666H17.9999V18.1666C17.9999 17.98 17.8533 17.8333 17.6666 17.8333H10.3333C10.1466 17.8333 9.99992 17.98 9.99992 18.1666V22.1666H9.33325C9.05992 22.1666 8.83325 22.3933 8.83325 22.6666C8.83325 22.94 9.05992 23.1666 9.33325 23.1666H21.2866C21.2999 23.1666 21.3066 23.1733 21.3199 23.1733C21.3333 23.1733 21.3399 23.1666 21.3533 23.1666H22.6666C22.9399 23.1666 23.1666 22.94 23.1666 22.6666C23.1666 22.3933 22.9399 22.1666 22.6666 22.1666ZM13.4999 20.1666C13.4999 19.8933 13.7266 19.6666 13.9999 19.6666C14.2733 19.6666 14.4999 19.8933 14.4999 20.1666V22.1666H13.4999V20.1666Z" fill="#DD673C"/>
</svg>
