<svg width="20" height="20" viewBox="0 0 20 20" fill="none" xmlns="http://www.w3.org/2000/svg">
<path d="M9.99951 2.16675C14.3149 2.16675 17.8333 5.68438 17.8335 9.99976C17.8335 14.3153 14.315 17.8337 9.99951 17.8337C5.68414 17.8336 2.1665 14.3152 2.1665 9.99976C2.16668 5.68449 5.68424 2.16693 9.99951 2.16675ZM9.69189 5.14136C9.07422 5.14136 8.56711 5.64873 8.56689 6.26636V9.68335C8.56689 10.6004 9.13348 11.6049 9.92627 12.0789L9.92725 12.0798L12.5103 13.6208V13.6199C12.7009 13.7407 12.9019 13.783 13.0835 13.783C13.4668 13.7828 13.8445 13.5892 14.0562 13.2263C14.3787 12.6877 14.1976 12.0014 13.6636 11.6873H13.6646L11.0815 10.1453L11.0757 10.1423C11.0517 10.1282 10.9797 10.063 10.9087 9.93823C10.8377 9.8135 10.8169 9.71499 10.8169 9.68335V6.26636C10.8167 5.64886 10.3094 5.14157 9.69189 5.14136Z" fill="#DD673C" stroke="#DD673C"/>
</svg>
