<svg width="16" height="16" viewBox="0 0 16 16" fill="none" xmlns="http://www.w3.org/2000/svg">
<path d="M8.00016 15.1667C4.04683 15.1667 0.833496 11.9534 0.833496 8.00004C0.833496 4.04671 4.04683 0.833374 8.00016 0.833374C11.9535 0.833374 15.1668 4.04671 15.1668 8.00004C15.1668 11.9534 11.9535 15.1667 8.00016 15.1667ZM8.00016 1.83337C4.60016 1.83337 1.8335 4.60004 1.8335 8.00004C1.8335 11.4 4.60016 14.1667 8.00016 14.1667C11.4002 14.1667 14.1668 11.4 14.1668 8.00004C14.1668 4.60004 11.4002 1.83337 8.00016 1.83337Z" fill="white"/>
<path d="M8.16032 11.1667C6.41365 11.1667 4.99365 9.74671 4.99365 8.00004C4.99365 6.25337 6.41365 4.83337 8.16032 4.83337C8.92699 4.83337 9.67366 5.11338 10.247 5.62671C10.4537 5.80671 10.4737 6.12671 10.2937 6.33337C10.1137 6.54004 9.79366 6.56005 9.587 6.38005C9.19366 6.03338 8.68699 5.84005 8.16032 5.84005C6.96699 5.84005 5.99365 6.81338 5.99365 8.00671C5.99365 9.20005 6.96699 10.1734 8.16032 10.1734C8.68032 10.1734 9.19366 9.98005 9.587 9.63338C9.79366 9.45338 10.1137 9.47339 10.2937 9.68005C10.4737 9.88672 10.4537 10.2067 10.247 10.3867C9.66699 10.8867 8.92699 11.1667 8.16032 11.1667Z" fill="white"/>
</svg>
