<svg width="16" height="16" viewBox="0 0 16 16" fill="none" xmlns="http://www.w3.org/2000/svg">
<mask id="path-1-inside-1_8775_623" fill="white">
<path d="M11.6268 10.2467C11.5001 10.2467 11.3734 10.2 11.2734 10.1C11.0801 9.90666 11.0801 9.58666 11.2734 9.39332L12.6268 8.03999L11.2734 6.68666C11.0801 6.49332 11.0801 6.17332 11.2734 5.97999C11.4668 5.78666 11.7868 5.78666 11.9801 5.97999L13.6868 7.68666C13.8801 7.87999 13.8801 8.19999 13.6868 8.39332L11.9801 10.1C11.8801 10.2 11.7534 10.2467 11.6268 10.2467Z"/>
</mask>
<path d="M11.6268 10.2467C11.5001 10.2467 11.3734 10.2 11.2734 10.1C11.0801 9.90666 11.0801 9.58666 11.2734 9.39332L12.6268 8.03999L11.2734 6.68666C11.0801 6.49332 11.0801 6.17332 11.2734 5.97999C11.4668 5.78666 11.7868 5.78666 11.9801 5.97999L13.6868 7.68666C13.8801 7.87999 13.8801 8.19999 13.6868 8.39332L11.9801 10.1C11.8801 10.2 11.7534 10.2467 11.6268 10.2467Z" fill="#292D32"/>
<path d="M11.2734 9.39332L10.5663 8.68622H10.5663L11.2734 9.39332ZM12.6268 8.03999L13.3339 8.7471L14.041 8.03999L13.3339 7.33288L12.6268 8.03999ZM11.2734 6.68666L11.9805 5.97955L11.2734 6.68666ZM11.9801 5.97999L11.273 6.6871L11.273 6.6871L11.9801 5.97999ZM13.6868 7.68666L14.3939 6.97955L14.3939 6.97955L13.6868 7.68666ZM13.6868 8.39332L14.3939 9.10043L14.3939 9.10043L13.6868 8.39332ZM11.9801 10.1L11.273 9.39288L11.273 9.39288L11.9801 10.1ZM11.6268 9.24666C11.751 9.24666 11.8831 9.29546 11.9805 9.39288L10.5663 10.8071C10.8637 11.1045 11.2492 11.2467 11.6268 11.2467V9.24666ZM11.9805 9.39288C12.1777 9.59008 12.1777 9.90324 11.9805 10.1004L10.5663 8.68622C9.98245 9.27008 9.98245 10.2232 10.5663 10.8071L11.9805 9.39288ZM11.9805 10.1004L13.3339 8.7471L11.9196 7.33288L10.5663 8.68622L11.9805 10.1004ZM13.3339 7.33288L11.9805 5.97955L10.5663 7.39376L11.9196 8.7471L13.3339 7.33288ZM11.9805 5.97955C12.1777 6.17674 12.1777 6.48991 11.9805 6.6871L10.5663 5.27288C9.98245 5.85674 9.98245 6.80991 10.5663 7.39376L11.9805 5.97955ZM11.9805 6.6871C11.7833 6.88429 11.4702 6.88429 11.273 6.6871L12.6872 5.27288C12.1033 4.68903 11.1502 4.68903 10.5663 5.27288L11.9805 6.6871ZM11.273 6.6871L12.9796 8.39376L14.3939 6.97955L12.6872 5.27288L11.273 6.6871ZM12.9796 8.39376C12.7825 8.19657 12.7825 7.88341 12.9796 7.68622L14.3939 9.10043C14.9777 8.51657 14.9777 7.56341 14.3939 6.97955L12.9796 8.39376ZM12.9796 7.68622L11.273 9.39288L12.6872 10.8071L14.3939 9.10043L12.9796 7.68622ZM11.273 9.39288C11.3704 9.29547 11.5025 9.24666 11.6268 9.24666V11.2467C12.0043 11.2467 12.3898 11.1045 12.6872 10.8071L11.273 9.39288Z" fill="#AB1F24" mask="url(#path-1-inside-1_8775_623)"/>
<mask id="path-3-inside-2_8775_623" fill="white">
<path d="M13.2868 8.54001H6.50684C6.2335 8.54001 6.00684 8.31334 6.00684 8.04001C6.00684 7.76668 6.2335 7.54001 6.50684 7.54001H13.2868C13.5602 7.54001 13.7868 7.76668 13.7868 8.04001C13.7868 8.31334 13.5602 8.54001 13.2868 8.54001Z"/>
</mask>
<path d="M13.2868 8.54001H6.50684C6.2335 8.54001 6.00684 8.31334 6.00684 8.04001C6.00684 7.76668 6.2335 7.54001 6.50684 7.54001H13.2868C13.5602 7.54001 13.7868 7.76668 13.7868 8.04001C13.7868 8.31334 13.5602 8.54001 13.2868 8.54001Z" fill="#292D32"/>
<path d="M13.2868 7.54001H6.50684V9.54001H13.2868V7.54001ZM6.50684 7.54001C6.78579 7.54001 7.00684 7.76106 7.00684 8.04001H5.00684C5.00684 8.86563 5.68122 9.54001 6.50684 9.54001V7.54001ZM7.00684 8.04001C7.00684 8.31896 6.78579 8.54001 6.50684 8.54001V6.54001C5.68122 6.54001 5.00684 7.21439 5.00684 8.04001H7.00684ZM6.50684 8.54001H13.2868V6.54001H6.50684V8.54001ZM13.2868 8.54001C13.0079 8.54001 12.7868 8.31896 12.7868 8.04001H14.7868C14.7868 7.21439 14.1125 6.54001 13.2868 6.54001V8.54001ZM12.7868 8.04001C12.7868 7.76106 13.0079 7.54001 13.2868 7.54001V9.54001C14.1125 9.54001 14.7868 8.86563 14.7868 8.04001H12.7868Z" fill="#AB1F24" mask="url(#path-3-inside-2_8775_623)"/>
<path d="M2.51367 8.29654C2.57852 9.7143 3.10945 10.9441 4.00293 11.8376C4.95807 12.7926 6.29735 13.3336 7.83984 13.3336C6.24292 13.3336 4.91578 12.7768 3.98926 11.8503C3.12084 10.9817 2.57822 9.76134 2.51367 8.29654ZM7.48633 2.67642C6.09273 2.75278 4.88435 3.28133 4.00293 4.16275C3.12151 5.04417 2.59296 6.25255 2.5166 7.64615C2.59263 6.20663 3.132 5.00634 3.98926 4.14908C4.84652 3.29182 6.04681 2.75245 7.48633 2.67642Z" fill="#292D32" stroke="#AB1F24"/>
</svg>
