<svg width="32" height="32" viewBox="0 0 32 32" fill="none" xmlns="http://www.w3.org/2000/svg">
<rect width="32" height="32" rx="16" fill="white"/>
<path d="M15.3666 17.9666L14.1333 19.2C13.8733 19.46 13.4599 19.46 13.1933 19.2066C13.1199 19.1333 13.0466 19.0666 12.9733 18.9933C12.2866 18.3 11.6666 17.5733 11.1133 16.8133C10.5666 16.0533 10.1266 15.2933 9.80659 14.54C9.49325 13.78 9.33325 13.0533 9.33325 12.36C9.33325 11.9066 9.41325 11.4733 9.57325 11.0733C9.73325 10.6666 9.98659 10.2933 10.3399 9.95998C10.7666 9.53998 11.2333 9.33331 11.7266 9.33331C11.9133 9.33331 12.0999 9.37331 12.2666 9.45331C12.4399 9.53331 12.5933 9.65331 12.7133 9.82665L14.2599 12.0066C14.3799 12.1733 14.4666 12.3266 14.5266 12.4733C14.5866 12.6133 14.6199 12.7533 14.6199 12.88C14.6199 13.04 14.5733 13.2 14.4799 13.3533C14.3933 13.5066 14.2666 13.6666 14.1066 13.8266L13.5999 14.3533C13.5266 14.4266 13.4933 14.5133 13.4933 14.62C13.4933 14.6733 13.4999 14.72 13.5133 14.7733C13.5333 14.8266 13.5533 14.8666 13.5666 14.9066C13.6866 15.1266 13.8933 15.4133 14.1866 15.76C14.4866 16.1066 14.8066 16.46 15.1533 16.8133C15.2199 16.88 15.2933 16.9466 15.3599 17.0133C15.6266 17.2733 15.6333 17.7 15.3666 17.9666Z" fill="#DD673C"/>
<path d="M22.6466 20.22C22.6466 20.4067 22.6132 20.6 22.5466 20.7867C22.5266 20.84 22.5066 20.8933 22.4799 20.9467C22.3666 21.1867 22.2199 21.4133 22.0266 21.6267C21.6999 21.9867 21.3399 22.2467 20.9332 22.4133C20.9266 22.4133 20.9199 22.42 20.9132 22.42C20.5199 22.58 20.0932 22.6667 19.6332 22.6667C18.9532 22.6667 18.2266 22.5067 17.4599 22.18C16.6932 21.8533 15.9266 21.4133 15.1666 20.86C14.9066 20.6667 14.6466 20.4733 14.3999 20.2667L16.5799 18.0867C16.7666 18.2267 16.9332 18.3333 17.0732 18.4067C17.1066 18.42 17.1466 18.44 17.1932 18.46C17.2466 18.48 17.2999 18.4867 17.3599 18.4867C17.4732 18.4867 17.5599 18.4467 17.6332 18.3733L18.1399 17.8733C18.3066 17.7067 18.4666 17.58 18.6199 17.5C18.7732 17.4067 18.9266 17.36 19.0932 17.36C19.2199 17.36 19.3532 17.3867 19.4999 17.4467C19.6466 17.5067 19.7999 17.5933 19.9666 17.7067L22.1732 19.2733C22.3466 19.3933 22.4666 19.5333 22.5399 19.7C22.6066 19.8667 22.6466 20.0333 22.6466 20.22Z" fill="#DD673C"/>
</svg>
