<svg width="20" height="20" viewBox="0 0 20 20" fill="none" xmlns="http://www.w3.org/2000/svg">
<path d="M16.5254 2.7334C17.2491 2.73361 17.833 3.31826 17.833 4.04199V13.9502C17.8329 14.5037 17.3655 15.034 16.8057 15.1035L16.8027 15.1045L16.5439 15.1377H16.542C15.1213 15.3283 13.1538 15.9095 11.5752 16.5713C11.372 16.6557 11.1253 16.5036 11.125 16.2588V4.66699C11.125 4.55085 11.1912 4.43015 11.3135 4.36328C12.7809 3.56968 15.0106 2.86431 16.499 2.7334H16.5254Z" fill="#DD673C" stroke="#DD673C"/>
<path d="M8.92487 3.92507C7.39987 3.10007 5.09154 2.36673 3.52487 2.2334H3.46654C2.46654 2.2334 1.6582 3.04173 1.6582 4.04173V13.9501C1.6582 14.7584 2.31654 15.5001 3.12487 15.6001L3.3832 15.6334C4.74987 15.8167 6.67487 16.3834 8.22487 17.0334C8.76654 17.2584 9.36654 16.8501 9.36654 16.2584V4.66673C9.36654 4.35006 9.19987 4.07507 8.92487 3.92507ZM4.16654 6.45006H6.04154C6.3832 6.45006 6.66654 6.7334 6.66654 7.07506C6.66654 7.42506 6.3832 7.70006 6.04154 7.70006H4.16654C3.82487 7.70006 3.54154 7.42506 3.54154 7.07506C3.54154 6.7334 3.82487 6.45006 4.16654 6.45006ZM6.66654 10.2001H4.16654C3.82487 10.2001 3.54154 9.92506 3.54154 9.57506C3.54154 9.2334 3.82487 8.95006 4.16654 8.95006H6.66654C7.0082 8.95006 7.29154 9.2334 7.29154 9.57506C7.29154 9.92506 7.0082 10.2001 6.66654 10.2001Z" fill="#DD673C"/>
</svg>
