<svg width="40" height="40" viewBox="0 0 40 40" fill="none" xmlns="http://www.w3.org/2000/svg">
<g opacity="0.8" clip-path="url(#clip0_3009_42205)">
<path d="M8.83703 19.1896C9.82703 19.0909 12.0052 19.0909 12.0052 17.7046C12.0052 15.824 9.23328 13.349 4.77828 10.6759C3.39266 9.78464 0.520781 8.39902 0.520781 6.51777C0.520781 5.03277 1.61016 3.94402 3.88703 4.24089C6.06516 4.53777 9.43141 6.02277 13.8858 9.78464C18.5389 13.6459 22.8945 20.0809 22.8945 26.4165C22.8945 32.8515 18.5389 39.2865 11.5095 39.2865C5.86703 39.2865 1.01578 35.0296 1.01578 29.1884C1.01641 24.7334 4.08516 19.5859 8.83703 19.1896Z" fill="#FEF6E8"/>
<path d="M22.7539 16.4059C23.567 15.9809 24.4589 15.7027 25.4214 15.6227C26.4114 15.524 28.5895 15.524 28.5895 14.1377C28.5895 12.2571 25.8176 9.78212 21.3626 7.109C19.9764 6.21775 17.1057 4.83212 17.1057 2.95087C17.1057 1.46587 18.1951 0.377122 20.472 0.673997C22.6501 0.970872 26.0164 2.45587 30.4707 6.21775C35.1232 10.079 39.4795 16.514 39.4795 22.8502C39.4795 29.2852 35.1239 35.7202 28.0945 35.7202C26.442 35.7202 24.8582 35.3527 23.4439 34.6896C24.8307 32.1821 25.5701 29.2809 25.5701 26.4171C25.5695 22.8809 24.4307 19.4515 22.7539 16.4059Z" fill="#FEF6E8"/>
</g>
<defs>
<clipPath id="clip0_3009_42205">
<rect width="40" height="40" fill="white" transform="matrix(-1 0 0 1 40 0)"/>
</clipPath>
</defs>
</svg>
