<svg width="40" height="40" viewBox="0 0 40 40" fill="none" xmlns="http://www.w3.org/2000/svg">
<g opacity="0.8" clip-path="url(#clip0_3009_42201)">
<path d="M31.163 19.1896C30.173 19.0909 27.9948 19.0909 27.9948 17.7046C27.9948 15.824 30.7667 13.349 35.2217 10.6759C36.6073 9.78464 39.4792 8.39902 39.4792 6.51777C39.4792 5.03277 38.3898 3.94402 36.113 4.24089C33.9348 4.53777 30.5686 6.02277 26.1142 9.78464C21.4611 13.6459 17.1055 20.0809 17.1055 26.4165C17.1055 32.8515 21.4611 39.2865 28.4905 39.2865C34.133 39.2865 38.9842 35.0296 38.9842 29.1884C38.9836 24.7334 35.9148 19.5859 31.163 19.1896Z" fill="#FEF6E8"/>
<path d="M17.2461 16.4059C16.433 15.9809 15.5411 15.7027 14.5786 15.6227C13.5886 15.524 11.4105 15.524 11.4105 14.1377C11.4105 12.2571 14.1824 9.78212 18.6374 7.109C20.0236 6.21775 22.8943 4.83212 22.8943 2.95087C22.8943 1.46587 21.8049 0.377122 19.528 0.673997C17.3499 0.970872 13.9836 2.45587 9.52926 6.21775C4.87676 10.079 0.520508 16.514 0.520508 22.8502C0.520508 29.2852 4.87613 35.7202 11.9055 35.7202C13.558 35.7202 15.1418 35.3527 16.5561 34.6896C15.1693 32.1821 14.4299 29.2809 14.4299 26.4171C14.4305 22.8809 15.5693 19.4515 17.2461 16.4059Z" fill="#FEF6E8"/>
</g>
<defs>
<clipPath id="clip0_3009_42201">
<rect width="40" height="40" fill="white"/>
</clipPath>
</defs>
</svg>
