<svg width="24" height="24" viewBox="0 0 24 24" fill="none" xmlns="http://www.w3.org/2000/svg">
<path d="M11.5 1.75C16.8739 1.75 21.25 6.12614 21.25 11.5C21.25 16.8739 16.8739 21.25 11.5 21.25C6.12614 21.25 1.75 16.8739 1.75 11.5C1.75 6.12614 6.12614 1.75 11.5 1.75ZM11.5 2.25C6.39349 2.25 2.25 6.40423 2.25 11.5C2.25 16.5958 6.39349 20.75 11.5 20.75C16.6065 20.75 20.75 16.5958 20.75 11.5C20.75 6.40423 16.6065 2.25 11.5 2.25Z" fill="#676767" stroke="#676767"/>
<path d="M19.8237 19.8238C19.9185 19.7291 20.0815 19.7291 20.1763 19.8238L22.1763 21.8238C22.2709 21.9185 22.271 22.0816 22.1763 22.1763C22.125 22.2276 22.0641 22.2496 21.9995 22.2496C21.9351 22.2495 21.8749 22.2275 21.8237 22.1763L19.8237 20.1763C19.729 20.0816 19.729 19.9185 19.8237 19.8238Z" fill="#676767" stroke="#676767"/>
</svg>
