<svg width="20" height="20" viewBox="0 0 20 20" fill="none" xmlns="http://www.w3.org/2000/svg">
<path d="M9.99976 2.1665C14.3152 2.1665 17.8336 5.68414 17.8337 9.99951C17.8337 14.315 14.3153 17.8335 9.99976 17.8335C5.68438 17.8333 2.16675 14.3149 2.16675 9.99951C2.16693 5.68424 5.68449 2.16668 9.99976 2.1665ZM14.3367 6.84619C13.8998 6.40952 13.1837 6.40952 12.7468 6.84619L8.81616 10.7759L7.25366 9.21338C6.81673 8.77645 6.09977 8.77645 5.66284 9.21338C5.22639 9.65026 5.2263 10.3664 5.66284 10.8032L8.02124 13.1616C8.23061 13.371 8.51636 13.4917 8.81714 13.4917C9.11778 13.4916 9.40279 13.3709 9.61206 13.1616L14.3425 8.43115C14.7683 7.9907 14.7768 7.28636 14.3367 6.84619Z" fill="#12B76A" stroke="#12B76A"/>
</svg>
