<svg width="20" height="20" viewBox="0 0 20 20" fill="none" xmlns="http://www.w3.org/2000/svg">
<path d="M7.49976 1.5415H11.6667C11.6969 1.5415 11.728 1.55395 11.7537 1.57959C11.7793 1.60523 11.7917 1.63636 11.7917 1.6665C11.7917 1.69665 11.7793 1.72777 11.7537 1.75342C11.728 1.77906 11.6969 1.7915 11.6667 1.7915H7.49976C5.54381 1.79154 4.06852 2.13388 3.10132 3.10107C2.13412 4.06827 1.79179 5.54356 1.79175 7.49951V12.4995C1.79175 14.4554 2.13432 15.9307 3.10132 16.8979C4.06852 17.8651 5.54381 18.2085 7.49976 18.2085H12.4998C14.4559 18.2085 15.9309 17.8652 16.8982 16.8979C17.8654 15.9307 18.2087 14.4556 18.2087 12.4995V8.3335C18.2087 8.30335 18.2212 8.27223 18.2468 8.24658C18.2725 8.22094 18.3036 8.2085 18.3337 8.2085C18.3638 8.20858 18.3951 8.22103 18.4207 8.24658C18.4461 8.27216 18.4587 8.30348 18.4587 8.3335V12.4995C18.4587 14.7046 17.9858 16.1599 17.073 17.0728C16.1602 17.9856 14.7049 18.4585 12.4998 18.4585H7.49976C5.29496 18.4584 3.84028 17.9854 2.92749 17.0728C2.01466 16.1599 1.54175 14.7046 1.54175 12.4995V7.49951C1.54179 5.29459 2.01471 3.84003 2.92749 2.92725C3.84027 2.01446 5.29483 1.54155 7.49976 1.5415Z" fill="#505050" stroke="#505050"/>
<path d="M11.6218 1.55176C11.6556 1.53729 11.7099 1.53881 11.7595 1.58398L18.4216 8.24512C18.4561 8.27958 18.4661 8.33778 18.449 8.37793C18.4262 8.43102 18.3796 8.45788 18.3337 8.45801H14.9998C13.6209 8.45797 12.7976 8.18655 12.3054 7.69434C11.8133 7.20206 11.5417 6.37891 11.5417 5V1.66699C11.5417 1.64176 11.5497 1.61642 11.5632 1.5957C11.5766 1.57541 11.593 1.56258 11.6082 1.55664L11.615 1.55469L11.6218 1.55176ZM11.7917 5C11.7917 6.07521 11.9202 6.94756 12.4861 7.51367C13.0521 8.07972 13.9246 8.20798 14.9998 8.20801H18.032L11.7917 1.96777V5Z" fill="#505050" stroke="#505050"/>
<path d="M10.8333 11.4585H5.83325C5.49159 11.4585 5.20825 11.1752 5.20825 10.8335C5.20825 10.4918 5.49159 10.2085 5.83325 10.2085H10.8333C11.1749 10.2085 11.4583 10.4918 11.4583 10.8335C11.4583 11.1752 11.1749 11.4585 10.8333 11.4585Z" fill="#505050"/>
<path d="M9.16659 14.7915H5.83325C5.49159 14.7915 5.20825 14.5082 5.20825 14.1665C5.20825 13.8248 5.49159 13.5415 5.83325 13.5415H9.16659C9.50825 13.5415 9.79159 13.8248 9.79159 14.1665C9.79159 14.5082 9.50825 14.7915 9.16659 14.7915Z" fill="#505050"/>
</svg>
