<svg width="20" height="20" viewBox="0 0 20 20" fill="none" xmlns="http://www.w3.org/2000/svg">
<path d="M13.4319 9.81787C13.473 10.0178 13.4199 10.2214 13.2747 10.3862L9.73462 14.4087C9.59038 14.5632 9.40345 14.6421 9.22485 14.6421C9.2108 14.6421 9.19694 14.6391 9.18286 14.6382L9.67505 14.0806L12.9583 10.356L13.4319 9.81787ZM8.67505 10.4751C8.70518 10.4751 8.73633 10.4876 8.76196 10.5132C8.78758 10.5388 8.80003 10.57 8.80005 10.6001V14.4927C8.64275 14.368 8.55005 14.1822 8.55005 13.9751V10.7251H7.23364C7.0224 10.7251 6.83509 10.6313 6.71021 10.4751H8.67505ZM10.3245 5.91943L7.04126 9.64502L6.57349 10.1753C6.54386 10.0115 6.57646 9.84571 6.67212 9.70166L6.73364 9.62256L10.2815 5.58936L10.2825 5.59033C10.4231 5.43168 10.6153 5.35262 10.8127 5.36475L10.3245 5.91943ZM11.2004 5.51416C11.3581 5.63883 11.4504 5.82636 11.4504 6.03369V9.28369H12.7747C12.982 9.28369 13.1664 9.37392 13.2913 9.5249H11.3254C11.2953 9.5249 11.2632 9.51246 11.2375 9.48682C11.2122 9.46125 11.2004 9.42989 11.2004 9.3999V5.51416Z" fill="#505050" stroke="#505050"/>
<path d="M9.97461 1.5415C14.632 1.5415 18.4334 5.33444 18.4336 9.99951C18.4336 14.665 14.6401 18.4585 9.97461 18.4585C5.31726 18.4583 1.5166 14.6646 1.5166 9.99951C1.51678 5.33455 5.31737 1.54168 9.97461 1.5415ZM9.97461 1.7915C5.44872 1.79168 1.76678 5.47363 1.7666 9.99951C1.7666 14.5255 5.44862 18.2083 9.97461 18.2085C14.5008 18.2085 18.1836 14.5257 18.1836 9.99951C18.1834 5.47352 14.5006 1.7915 9.97461 1.7915Z" fill="#505050" stroke="#505050"/>
</svg>
