<svg width="20" height="20" viewBox="0 0 20 20" fill="none" xmlns="http://www.w3.org/2000/svg">
<path d="M6.66675 1.5166H13.3337C15.0915 1.51666 16.3512 1.9794 17.1736 2.80176C17.9959 3.62417 18.4587 4.88383 18.4587 6.6416V10.8086C18.4587 12.5663 17.9959 13.8261 17.1736 14.6484C16.3512 15.4708 15.0915 15.9335 13.3337 15.9336H12.9167C12.6733 15.9336 12.4827 16.0562 12.366 16.1963L12.3582 16.2061L12.3503 16.2168L11.1013 17.8818C10.7992 18.2824 10.3971 18.4834 9.99976 18.4834C9.60254 18.4833 9.20118 18.2823 8.89917 17.8818L7.65015 16.2168L7.60327 16.1621C7.55632 16.1139 7.51075 16.0837 7.48999 16.0703C7.45235 16.0461 7.41546 16.0268 7.3855 16.0127C7.33344 15.9883 7.2571 15.9585 7.1814 15.9434L7.13257 15.9336H6.66675C4.94763 15.9336 3.70085 15.6936 2.87378 14.9951C2.06648 14.3133 1.5418 13.0883 1.54175 10.8086V6.6416C1.54175 4.88371 2.00449 3.62417 2.8269 2.80176C3.64932 1.97934 4.90886 1.5166 6.66675 1.5166ZM6.66675 1.7666C5.10675 1.7666 3.85853 2.12951 3.00659 2.98145C2.15466 3.83338 1.79175 5.0816 1.79175 6.6416V10.8086C1.79178 12.7139 2.11047 14.0081 2.99292 14.7842C3.85802 15.5447 5.13606 15.6836 6.66675 15.6836H7.08374C7.31723 15.6837 7.60372 15.8114 7.78198 15.9893L7.85132 16.0684L9.10034 17.7334L9.10229 17.7363C9.31649 18.0177 9.62815 18.2206 9.99976 18.2207C10.3716 18.2207 10.6839 18.0179 10.8982 17.7363L10.9001 17.7334L12.1501 16.0664C12.3307 15.8257 12.6159 15.6836 12.9167 15.6836H13.3337C14.8936 15.6835 16.141 15.3196 16.9929 14.4678C17.8448 13.6159 18.2087 12.3684 18.2087 10.8086V6.6416C18.2087 5.0816 17.8449 3.83338 16.9929 2.98145C16.1411 2.1298 14.8934 1.76665 13.3337 1.7666H6.66675Z" fill="#505050" stroke="#505050"/>
<path d="M6.66699 7.12695C6.70265 7.12707 6.73345 7.14067 6.75488 7.16211C6.77624 7.18362 6.78906 7.21431 6.78906 7.25C6.78903 7.2857 6.77629 7.3164 6.75488 7.33789L5.17578 8.91699L5.5293 9.27051L6.75488 10.4951C6.77629 10.5166 6.78901 10.5473 6.78906 10.583C6.78906 10.6187 6.77622 10.6494 6.75488 10.6709C6.7402 10.6856 6.72575 10.694 6.71289 10.6992C6.69968 10.7045 6.68446 10.708 6.66699 10.708C6.64934 10.708 6.63344 10.7046 6.62012 10.6992C6.60728 10.694 6.59279 10.6856 6.57812 10.6709L4.91211 9.00488C4.89067 8.98345 4.87707 8.95265 4.87695 8.91699C4.87695 8.88114 4.89058 8.84965 4.91211 8.82812L6.57812 7.16211C6.59965 7.14058 6.63114 7.12695 6.66699 7.12695Z" fill="#505050" stroke="#505050"/>
<path d="M13.3334 11.2082C13.175 11.2082 13.0167 11.1499 12.8917 11.0249C12.65 10.7832 12.65 10.3832 12.8917 10.1415L14.1167 8.91656L12.8917 7.69153C12.65 7.44987 12.65 7.04987 12.8917 6.8082C13.1334 6.56654 13.5334 6.56654 13.775 6.8082L15.4417 8.47487C15.6834 8.71654 15.6834 9.11653 15.4417 9.3582L13.775 11.0249C13.65 11.1499 13.4917 11.2082 13.3334 11.2082Z" fill="#505050"/>
<path d="M9.16664 11.4831C9.08331 11.4831 8.99998 11.4664 8.91665 11.4331C8.59998 11.2998 8.44997 10.9331 8.59164 10.6081L10.2583 6.71645C10.3916 6.39979 10.7583 6.24978 11.0833 6.39144C11.4 6.52478 11.55 6.89143 11.4083 7.21643L9.74164 11.1081C9.64164 11.3415 9.40831 11.4831 9.16664 11.4831Z" fill="#3D3D3D"/>
</svg>
