<svg width="20" height="20" viewBox="0 0 20 20" fill="none" xmlns="http://www.w3.org/2000/svg">
<path d="M8.24878 7.0415C8.71716 6.77218 9.38835 6.77725 10.1404 7.21533L10.1423 7.21631L12.283 8.44873V8.44971C13.0292 8.8814 13.3748 9.46415 13.3748 10.0005C13.3746 10.5033 13.0708 11.0467 12.4177 11.4683L12.283 11.5503L10.1423 12.7837L10.1384 12.7856C9.71804 13.032 9.31276 13.1421 8.96655 13.1421C8.69869 13.1421 8.45976 13.0786 8.2478 12.9575H8.24683C7.78099 12.6885 7.45007 12.1031 7.44995 11.2339V8.76709C7.44995 7.90377 7.78248 7.30971 8.24878 7.0415ZM8.97534 7.10889C8.80921 7.10889 8.61872 7.13528 8.44019 7.22705L8.37769 7.26221C7.87943 7.55834 7.70874 8.18503 7.70874 8.76709V11.2339C7.70883 11.8047 7.86579 12.4387 8.37769 12.7378V12.7388C8.89089 13.0435 9.53061 12.8541 10.0261 12.5659L10.0251 12.5649L12.1658 11.3335L12.1677 11.3325C12.6672 11.0419 13.1333 10.5868 13.1335 10.0005C13.1335 9.41786 12.6739 8.95425 12.1648 8.6665H12.1658L10.0242 7.43311H10.0232C9.6761 7.23123 9.31533 7.10898 8.97534 7.10889Z" fill="#505050" stroke="#505050"/>
<path d="M9.99976 1.5415C14.6652 1.5415 18.4586 5.33414 18.4587 9.99951C18.4587 14.665 14.6653 18.4585 9.99976 18.4585C5.33438 18.4583 1.54175 14.6649 1.54175 9.99951C1.54192 5.33425 5.33449 1.54168 9.99976 1.5415ZM9.99976 1.7915C5.47387 1.79168 1.79192 5.47363 1.79175 9.99951C1.79175 14.5255 5.47376 18.2083 9.99976 18.2085C14.5259 18.2085 18.2087 14.5257 18.2087 9.99951C18.2086 5.47352 14.5258 1.7915 9.99976 1.7915Z" fill="#505050" stroke="#505050"/>
</svg>
